# xmcd
#
# Track frame offsets: 
#        150
#        15509
#        30066
#        48777
#        64604
#        78554
#        95711
#        116598
#        133548
#        148201
#        165748
#        180080
#        195296
#
# Disc length: 2813 seconds
#
# Revision: 0
# Processed by: cddbd v1.5.2PL0 Copyright (c) Steve Scherf et al.
# Submitted via: ExactAudioCopyFreeDBPlugin 1.0
#
DISCID=990afb0d
DTITLE=Norah Jones - Feels Like Home
DYEAR=2004
DGENRE=Blues
TTITLE0=Sunrise
TTITLE1=What Am I To You? 
TTITLE2=Those Sweet Words
TTITLE3=Carnival Town 
TTITLE4=In The Morning 
TTITLE5=Be Here To Love Me 
TTITLE6=Creepin' In 
TTITLE7=Toes
TTITLE8=Humble Me
TTITLE9=Above Ground 
TTITLE10=The Long Way Home
TTITLE11=The Prettiest Thing
TTITLE12=Don't Miss You At All
EXTD=
EXTT0=
EXTT1=
EXTT2=
EXTT3=
EXTT4=
EXTT5=
EXTT6=
EXTT7=
EXTT8=
EXTT9=
EXTT10=
EXTT11=
EXTT12=
PLAYORDER=
